<?xml version="1.0" standalone="no"?>
<!DOCTYPE svg PUBLIC "-//W3C//DTD SVG 20010904//EN"
 "http://www.w3.org/TR/2001/REC-SVG-20010904/DTD/svg10.dtd">
<svg version="1.0" xmlns="http://www.w3.org/2000/svg"
 width="300.000000pt" height="300.000000pt" viewBox="0 0 300.000000 300.000000"
 preserveAspectRatio="xMidYMid meet">
<metadata>
Created by potrace 1.10, written by Peter Selinger 2001-2011
</metadata>
<g transform="translate(0.000000,300.000000) scale(0.100000,-0.100000)"
fill="#000000" stroke="none">
<path d="M142 2348 l-2 -657 -72 -4 -73 -3 73 -2 72 -2 0 -185 0 -184 -72 -4
-73 -3 74 -2 74 -2 -5 -565 -5 -565 303 0 304 0 0 -45 0 -45 -79 0 c-54 0 -81
4 -84 13 -4 9 -6 9 -6 0 -1 -9 -30 -14 -103 -15 l-103 -2 100 -3 c63 -3 102
-8 107 -16 6 -9 8 -9 8 1 0 9 244 12 1185 12 l1185 0 0 49 c0 46 2 50 28 54
l27 4 -27 2 -28 1 3 828 2 827 -52 3 -53 3 0 580 0 579 -62 -2 -63 -2 58 -3
57 -4 0 -189 c0 -103 -3 -195 -6 -204 -4 -10 -18 -16 -40 -16 -31 0 -34 3 -33
28 1 16 3 20 6 10 7 -27 32 -21 39 8 9 35 -4 202 -18 228 -6 11 -22 29 -35 39
-14 12 -23 29 -23 47 0 45 -10 60 -40 60 -32 0 -40 -14 -40 -68 0 -29 -5 -39
-22 -47 -20 -9 -25 -23 -36 -100 -15 -102 -10 -147 19 -176 26 -26 24 -29 -16
-29 l-35 0 0 204 0 205 48 4 47 3 -52 2 -53 2 0 -145 0 -145 -902 -2 -903 -3
-3 -392 -2 -393 905 0 905 0 0 -40 0 -40 -97 -1 c-54 0 -264 -2 -468 -5 -203
-2 -567 -4 -807 -4 l-438 0 0 -825 0 -825 -295 0 -295 0 0 560 0 560 145 0
145 0 0 195 0 195 -145 0 -145 0 -3 658 -2 657 -3 -657z m2561 626 c-3 -9 0
-20 7 -24 16 -10 4 -30 -17 -30 -11 0 -14 6 -9 25 4 14 2 25 -4 25 -5 0 -10 5
-10 10 0 6 9 10 20 10 14 0 18 -5 13 -16z m22 -90 c19 -22 21 -32 14 -63 -5
-20 -9 -53 -9 -73 0 -35 -2 -38 -29 -38 -28 0 -29 2 -21 29 5 19 5 31 -2 33
-16 6 -22 87 -8 114 17 31 27 30 55 -2z m-73 -111 c1 -34 2 -70 2 -80 1 -9 -5
-17 -12 -19 -7 -1 -8 0 -2 3 14 7 12 23 -2 21 -9 -2 -14 17 -15 68 -2 56 1 71
13 71 10 0 14 -16 16 -64z m109 -25 l-4 -63 -9 54 c-6 41 -5 57 4 63 7 4 13 8
13 8 0 0 -2 -28 -4 -62z m-144 -80 c3 -24 2 -40 -2 -36 -4 3 -9 26 -11 49 -2
23 -1 39 2 36 4 -3 9 -26 11 -49z m-927 -354 l0 -384 -59 0 c-61 0 -69 6 -66
45 1 11 2 178 3 370 l2 350 60 2 60 1 0 -384z m858 4 c-3 -355 -4 -383 -20
-386 -17 -3 -18 20 -18 382 0 382 0 386 20 386 21 0 21 -3 18 -382z m195 360
c3 -13 2 -39 -2 -58 l-9 -35 -7 33 c-10 44 -29 42 -21 -3 6 -28 4 -35 -9 -35
-12 0 -15 9 -14 38 2 20 1 43 -2 51 -2 9 6 17 21 22 37 11 37 11 43 -13z
m-1191 -328 l-3 -340 -47 -2 c-26 0 -59 0 -74 1 -22 2 -28 -2 -28 -17 0 -11
-7 -25 -15 -32 -8 -7 -12 -16 -9 -21 3 -5 -2 -9 -10 -9 -18 0 -21 16 -6 25 6
4 10 14 9 23 -3 24 11 51 24 48 7 -1 9 -1 5 1 -19 11 -7 30 16 26 43 -9 63 71
34 137 -38 85 -44 108 -42 155 1 28 -4 61 -11 75 -7 14 -18 48 -25 77 -9 40
-21 61 -54 91 -24 22 -52 44 -62 50 -23 12 -195 12 -188 0 3 -4 -1 -8 -8 -8
-21 0 -80 -62 -106 -110 -12 -23 -25 -61 -28 -84 -4 -22 -11 -46 -16 -53 -5
-6 -11 -53 -14 -105 -2 -51 -9 -109 -14 -128 -6 -19 -11 -51 -12 -70 l-3 -35
-58 -5 -58 -5 2 327 3 328 400 0 401 0 -3 -340z m948 -25 c0 -250 -3 -365 -11
-365 -5 0 -7 -4 -4 -10 4 -6 -19 -10 -60 -10 -49 0 -66 3 -62 13 2 6 14 11 25
9 15 -2 22 2 22 13 0 14 -6 16 -36 11 -33 -7 -35 -6 -24 14 6 11 7 26 3 33 -4
6 -8 18 -10 26 -1 8 -18 29 -37 47 -20 18 -36 40 -36 49 0 9 4 14 8 11 5 -3
27 4 50 15 45 23 45 24 46 126 1 29 -1 53 -4 53 -3 0 -6 8 -7 18 -1 9 -2 28
-3 42 -9 110 -134 216 -270 227 -58 5 -74 2 -115 -18 -26 -13 -50 -31 -53 -39
-3 -8 -10 -22 -16 -30 -7 -8 -20 -40 -31 -70 -10 -30 -24 -64 -32 -75 -15 -23
-17 -35 -4 -35 5 0 12 10 14 23 3 16 5 13 6 -10 0 -18 6 -33 11 -33 7 0 7 -7
0 -20 -6 -11 -8 -24 -5 -29 3 -5 -4 -30 -15 -56 -11 -26 -17 -51 -14 -57 3 -5
-3 -18 -14 -29 l-21 -19 4 53 4 52 -9 -49 c-9 -51 -6 -71 11 -61 10 7 14 -33
10 -97 -1 -19 -3 -20 -12 -8 -8 12 -9 10 -4 -7 5 -19 2 -23 -14 -23 -12 0 -21
-4 -21 -10 0 -5 14 -10 30 -10 20 0 30 5 30 15 0 25 2 29 21 54 10 13 16 27
13 32 -3 5 0 8 8 7 9 -2 14 10 16 37 2 22 8 45 14 52 7 9 7 21 0 40 -6 16 -13
49 -17 74 -5 38 -2 48 15 64 11 10 20 23 20 30 0 7 9 20 20 30 20 18 21 18 45
-7 16 -17 39 -28 70 -33 26 -3 48 -5 50 -3 8 10 14 59 7 54 -10 -6 -62 15 -62
26 0 4 16 5 35 3 30 -4 35 -2 35 15 0 17 -7 20 -42 20 -24 0 -61 -8 -83 -18
-40 -18 -85 -18 -85 -1 0 5 9 9 20 9 27 0 25 16 -2 24 -14 3 -19 9 -13 13 6 5
19 21 29 36 10 16 38 38 62 49 47 20 75 18 107 -10 16 -14 17 -13 17 7 0 13 4
20 11 15 6 -3 8 -16 4 -28 -15 -48 -22 -96 -14 -96 5 0 9 11 9 25 0 13 6 28
14 32 14 8 16 12 16 33 0 18 19 10 25 -11 5 -16 9 -18 15 -9 5 7 15 10 25 6
16 -6 16 -8 3 -24 -10 -12 -12 -25 -7 -42 l8 -25 -2 25 c-1 14 3 25 8 25 6 0
9 -4 7 -8 -1 -5 2 -6 8 -2 5 3 10 13 10 22 0 9 3 13 7 10 6 -6 10 -27 12 -67
1 -13 2 -13 11 0 9 14 15 7 11 -14 -1 -5 5 -6 14 -3 11 5 15 0 15 -16 0 -16
-3 -18 -9 -9 -7 11 -9 11 -14 -1 -8 -22 4 -62 13 -46 5 7 11 -11 15 -44 4 -30
4 -60 1 -66 -4 -5 -2 -12 4 -16 5 -3 10 -18 10 -33 0 -19 -3 -23 -9 -13 -7 10
-11 9 -22 -6 -8 -11 -25 -26 -39 -33 -14 -7 -30 -20 -37 -29 -10 -14 -11 -13
-7 4 6 25 53 79 77 88 9 3 17 12 17 18 0 8 -5 7 -17 -2 -15 -13 -15 -12 0 18
10 18 17 38 17 45 -1 7 -12 -10 -26 -39 -13 -28 -31 -56 -39 -63 -12 -10 -12
-6 -4 25 8 26 7 41 0 48 -8 8 -11 4 -12 -13 -1 -39 -7 -62 -18 -73 -6 -6 -11
-26 -11 -43 0 -18 -4 -35 -9 -38 -5 -3 -12 -22 -15 -41 -7 -35 -26 -49 -26
-18 0 24 -14 6 -15 -20 -1 -12 -8 -44 -16 -70 -11 -38 -17 -47 -34 -46 -11 2
-30 -1 -43 -5 -38 -13 -36 0 3 27 l37 25 -43 -3 c-24 -1 -50 -3 -56 -4 -7 0
-13 -6 -13 -11 0 -6 12 -8 27 -6 23 5 25 3 12 -9 -8 -7 -23 -15 -34 -17 -18
-3 -19 2 -16 65 2 48 -2 78 -14 103 -20 43 -33 37 -15 -6 12 -30 11 -33 -21
-61 -19 -16 -46 -37 -61 -46 -16 -10 -28 -25 -28 -35 0 -15 -7 -17 -40 -14
-22 2 -43 0 -46 -5 -3 -5 -18 -9 -35 -9 l-29 0 0 380 0 380 400 0 400 0 0
-365z m159 326 c9 -6 12 -18 7 -36 -8 -31 -20 -24 -30 18 -7 28 -1 33 23 18z
m-1539 -28 c-33 -6 -50 -21 -50 -44 0 -11 -4 -19 -10 -19 -5 0 -10 -11 -10
-24 0 -14 -4 -28 -10 -31 -6 -4 -7 1 -3 12 6 16 5 16 -10 4 -20 -16 -21 -12
-7 23 18 48 61 86 94 85 27 -2 28 -2 6 -6z m128 -51 c13 -15 25 -39 29 -55 3
-15 10 -30 14 -33 13 -8 10 26 -6 71 -20 54 -18 65 5 35 11 -14 20 -38 20 -55
0 -20 3 -26 9 -17 20 32 39 2 40 -63 1 -23 7 -47 14 -55 9 -11 8 -11 -7 0 -18
14 -19 14 -5 -10 10 -18 14 -62 14 -161 0 -76 -3 -132 -6 -127 -4 7 -9 7 -13
0 -3 -6 1 -17 9 -25 21 -22 19 -27 -11 -27 -14 0 -23 -4 -19 -10 3 -5 12 -7
20 -3 20 7 19 -11 0 -27 -12 -10 -13 -15 -3 -21 9 -6 9 -13 -2 -33 -13 -26
-30 -35 -30 -16 0 6 -9 6 -26 0 -14 -6 -42 -10 -62 -10 l-37 1 30 16 c17 9 48
18 70 18 58 3 63 5 37 16 -27 10 -85 3 -90 -12 -2 -5 -9 -9 -17 -9 -7 0 -18
-7 -25 -15 -10 -12 -37 -15 -122 -15 -70 0 -107 4 -103 10 3 6 1 10 -4 10 -6
0 -11 -5 -11 -10 0 -7 -37 -10 -102 -8 l-103 3 -3 28 c-3 27 12 57 29 57 5 0
6 -7 3 -15 -4 -10 0 -15 11 -15 9 0 15 6 12 13 -5 16 75 47 85 33 5 -7 8 -3 8
8 0 11 7 27 16 37 8 9 16 26 17 38 1 11 4 21 8 21 10 0 19 40 12 56 -8 23 -25
4 -19 -21 3 -13 2 -26 -3 -29 -4 -3 -11 -19 -14 -36 -4 -16 -11 -30 -17 -30
-12 0 -13 43 -1 56 5 5 12 36 15 69 3 33 8 92 12 130 6 73 32 160 59 202 19
28 32 25 17 -4 -6 -10 -12 -49 -15 -88 l-6 -70 12 58 c7 32 15 58 20 58 4 -1
12 -1 17 -1 6 0 10 -8 10 -17 0 -15 -2 -16 -10 -3 -8 12 -10 10 -11 -10 0 -14
-2 -33 -4 -43 -3 -15 0 -15 26 4 20 14 33 17 45 11 20 -11 56 -4 48 9 -7 12
-61 11 -85 -1 -20 -11 -28 3 -9 15 6 3 10 15 10 26 0 11 9 37 20 59 16 32 28
41 67 53 58 18 81 13 111 -21z m1592 -17 c0 -12 -17 -15 -87 -17 -49 0 -112
-2 -140 -3 -46 -2 -53 0 -53 16 0 18 10 19 140 19 118 0 140 -2 140 -15z m0
-68 l0 -39 -44 36 c-26 21 -47 32 -51 26 -3 -5 1 -10 9 -10 9 0 16 -4 16 -8 0
-5 10 -14 23 -19 22 -11 22 -11 -8 -23 -21 -8 -36 -8 -53 -1 -12 6 -25 11 -27
11 -6 0 1 -29 10 -37 4 -4 5 -2 0 6 -6 10 -2 12 16 6 35 -10 45 -23 26 -31 -9
-3 -14 -10 -11 -15 3 -5 -1 -7 -8 -4 -18 7 -78 -31 -78 -50 0 -20 6 -19 44 10
37 28 81 37 81 16 0 -8 -26 -23 -60 -35 -40 -14 -63 -29 -72 -45 -11 -24 -12
-23 -16 15 l-4 39 -1 -42 c-2 -44 7 -53 28 -29 6 8 18 12 25 10 11 -5 8 -12
-10 -32 -14 -15 -25 -34 -25 -42 0 -9 -9 -16 -20 -17 -19 -2 -19 0 -5 28 11
21 12 28 3 27 -7 -2 -13 10 -14 32 -6 94 -8 109 -15 105 -4 -3 -6 10 -5 30 2
19 0 32 -4 30 -4 -3 -10 7 -13 20 -2 14 0 28 5 31 5 3 7 11 5 18 -3 7 4 13 14
13 12 1 17 -3 13 -9 -5 -7 0 -9 14 -6 12 4 20 2 16 -3 -3 -5 2 -9 10 -9 25 0
31 4 30 17 -1 7 2 11 6 8 5 -3 12 -1 15 5 4 6 35 10 71 9 l64 -2 0 -40z m-800
-42 c0 -19 -27 -26 -40 -10 -8 10 -7 16 7 23 20 12 33 7 33 -13z m535 -46 c2
-19 5 -55 7 -81 2 -25 7 -44 11 -41 4 2 5 -21 2 -51 -2 -31 -1 -56 4 -56 4 0
8 -13 8 -30 0 -25 -4 -30 -24 -30 l-23 0 0 167 c0 157 5 199 15 122z m264
-174 c-1 -114 -1 -115 -25 -115 -20 0 -24 5 -25 33 -3 83 19 197 38 197 9 0
12 -29 12 -115z m-57 61 c-15 -25 -17 -37 -9 -45 17 -17 -10 -31 -48 -25 -30
5 -30 5 4 -8 42 -16 56 -42 17 -32 -30 7 -35 -10 -10 -37 16 -17 15 -18 -15
-9 -23 6 -35 5 -46 -6 -13 -14 -17 -14 -30 0 -12 12 -14 20 -5 36 11 21 22 25
34 13 3 -4 13 -8 22 -9 13 -2 13 1 -1 22 -13 21 -14 28 -4 41 7 8 13 27 14 41
0 20 8 28 35 38 58 21 64 18 42 -20z m-1346 -108 c27 -52 8 -129 -29 -115 -16
6 -16 10 -1 93 3 18 2 34 -4 38 -5 3 -7 18 -4 33 l5 28 10 -25 c5 -14 15 -37
23 -52z m440 28 c-12 -18 -12 -26 -3 -29 7 -3 5 -6 -5 -6 -10 -1 -18 4 -18 10
0 18 20 49 32 49 6 0 4 -10 -6 -24z m-31 -67 c-5 -14 -3 -17 9 -13 24 9 19 -4
-5 -17 -20 -10 -21 -9 -17 15 3 14 1 26 -4 26 -5 0 -6 5 -3 10 10 17 26 0 20
-21z m433 -31 c-2 -6 6 -16 17 -22 11 -7 21 -17 22 -23 11 -57 12 -73 3 -73
-5 0 -10 -7 -10 -15 0 -9 7 -15 16 -13 10 2 19 -2 21 -9 3 -8 -23 -11 -92 -11
-86 0 -96 1 -89 16 4 10 7 27 7 40 1 12 6 22 13 22 13 0 44 43 44 60 0 15 23
39 38 40 6 0 11 -5 10 -12z m560 -143 l2 -130 -65 66 -66 66 63 62 c35 34 54
58 43 53 -11 -6 -40 -31 -65 -56 -24 -25 -49 -46 -55 -46 -6 0 -37 27 -70 60
l-60 61 135 -3 135 -3 3 -130z m-105 -42 l89 -84 -129 3 -128 3 -3 119 -3 119
43 -38 c24 -21 83 -76 131 -122z m-787 72 c-3 -8 -13 -15 -22 -15 -8 0 -14 6
-11 13 2 6 10 11 16 10 6 -2 11 5 12 15 0 10 2 12 6 4 3 -7 2 -19 -1 -27z
m-401 -38 c1 -26 0 -27 -61 -27 -46 0 -63 4 -68 15 -6 16 8 19 72 15 24 -1 32
3 32 15 0 9 6 15 13 13 6 -3 12 -17 12 -31z m5 -516 l0 -379 -59 0 c-41 0 -61
5 -65 14 -3 8 -2 13 2 13 21 -3 42 2 42 11 0 6 -24 10 -60 8 -56 -2 -59 -4
-55 -25 5 -33 -9 -28 -22 7 -12 32 -10 33 42 32 18 -1 18 0 1 5 -16 4 -18 12
-12 63 4 32 3 61 -2 64 -11 6 -85 -15 -93 -27 -3 -5 -9 1 -12 13 -3 12 -10 19
-15 16 -12 -7 -12 -86 -1 -86 5 0 9 7 9 16 0 8 5 12 11 8 6 -3 9 -15 6 -25 -3
-11 -1 -19 5 -19 5 0 7 -4 4 -9 -3 -5 1 -11 9 -15 9 -3 15 0 15 8 0 8 7 16 15
20 8 3 15 13 14 23 0 11 -3 13 -6 6 -2 -7 -10 -13 -15 -13 -6 0 -8 3 -5 6 3 4
2 15 -3 25 -7 12 -7 20 0 24 5 3 10 0 10 -7 0 -10 2 -10 9 1 15 23 30 3 29
-40 0 -33 -5 -42 -27 -53 -29 -16 -92 -22 -118 -13 -5 1 -8 -5 -9 -13 -2 -36
-6 -40 -32 -40 -16 0 -32 3 -36 8 -4 4 -20 7 -36 7 -15 0 -26 -3 -23 -7 2 -5
-60 -8 -138 -8 -111 0 -140 3 -131 12 18 18 15 38 -5 37 -11 0 -13 -3 -5 -6
19 -7 14 -19 -13 -31 l-25 -12 0 380 0 380 400 0 400 0 0 -379z m140 -6 l0
-385 410 0 410 0 0 385 c0 360 1 385 18 385 16 0 17 -34 14 -598 l-2 -598
-895 -3 -895 -3 0 216 0 216 405 0 405 0 0 385 0 385 65 0 65 0 0 -385z m810
10 c0 -319 -2 -375 -14 -375 -8 0 -17 8 -20 18 -3 9 -20 23 -38 30 -73 29 -83
37 -80 65 2 23 -19 47 -42 47 -15 0 -4 -18 14 -23 23 -6 27 -24 5 -24 -8 0
-15 4 -15 9 0 5 -4 6 -10 3 -5 -3 -10 0 -11 7 0 7 -5 3 -11 -10 -14 -29 -4
-38 26 -24 18 8 26 8 28 0 6 -17 -15 -58 -29 -58 -7 0 -13 -4 -13 -10 0 -5 5
-10 10 -10 6 0 10 -6 10 -13 0 -8 -21 -13 -70 -13 -65 -1 -69 0 -49 14 12 8
37 15 55 14 19 -1 34 3 34 8 0 6 -9 10 -20 10 -11 0 -20 4 -20 9 0 4 -15 3
-34 -3 -19 -6 -30 -14 -24 -17 15 -10 -45 -39 -80 -39 -15 0 -33 5 -40 12 -9
9 -12 9 -12 -1 0 -8 -17 -11 -60 -10 -33 1 -60 6 -60 10 0 15 -34 19 -50 4
-26 -23 -43 -19 -37 10 3 16 0 24 -7 22 -6 -2 -12 -9 -12 -15 -1 -7 -2 -16 -3
-22 0 -5 -20 -10 -43 -10 -40 1 -42 2 -24 15 11 8 27 15 37 15 9 0 19 8 23 18
3 9 8 22 11 28 4 7 -3 10 -20 7 -31 -7 -31 -3 0 33 14 16 27 43 29 59 3 17 9
57 14 90 6 38 6 61 0 64 -5 1 -1 12 9 23 12 13 19 41 21 89 2 38 8 66 13 63 5
-3 9 7 9 23 0 15 5 35 10 43 8 11 9 7 5 -15 -6 -28 -5 -29 8 -12 11 14 16 15
20 5 3 -7 6 -3 6 10 1 13 -3 20 -9 17 -6 -4 -10 6 -10 22 1 27 1 27 15 9 8
-11 15 -29 16 -40 1 -12 7 -2 15 23 7 24 19 50 25 58 15 17 74 43 101 43 32 0
78 -29 98 -63 11 -18 20 -27 20 -20 0 20 35 7 38 -15 2 -12 7 -22 11 -22 4 0
14 -19 21 -42 8 -24 20 -51 28 -60 13 -16 13 -18 -1 -18 -10 0 -17 5 -17 12 0
6 -2 9 -5 7 -2 -3 -2 -15 2 -28 4 -15 8 -19 13 -11 4 7 6 -13 5 -43 -1 -30 -6
-61 -11 -68 -5 -8 -7 -25 -5 -38 2 -17 -1 -21 -11 -15 -7 4 -4 -3 7 -16 20
-23 20 -23 0 -16 -16 6 -18 5 -7 -5 6 -7 12 -21 12 -30 0 -20 27 -33 33 -16 2
6 -3 24 -11 39 -10 21 -11 36 -3 61 5 17 13 67 16 110 5 61 3 82 -9 99 -9 12
-16 32 -16 43 -1 37 -54 119 -96 147 -33 22 -57 29 -116 33 l-75 6 -50 -40
c-69 -56 -100 -106 -113 -188 -7 -37 -16 -76 -21 -85 -13 -26 -11 -32 6 -18
23 19 18 -1 -6 -27 -18 -18 -20 -25 -10 -37 8 -10 9 -16 1 -21 -5 -3 -10 -35
-10 -69 0 -49 -5 -69 -21 -90 -11 -14 -24 -39 -29 -56 -8 -27 -6 -30 13 -31
l22 0 -23 -9 c-12 -5 -29 -7 -37 -4 -8 4 -15 1 -15 -5 0 -6 -7 -11 -15 -11
-13 0 -15 47 -15 365 l0 365 400 0 400 0 0 -375z m338 -221 l-5 -595 -139 0
-139 0 2 38 c1 21 2 289 2 596 l1 557 141 0 142 0 -5 -596z m102 -224 l0 -820
-45 0 -45 0 0 820 0 820 45 0 45 0 0 -820z m-2720 495 l0 -185 -35 0 -35 0 0
185 0 185 35 0 35 0 0 -185z m179 154 l31 -11 0 -139 0 -138 -30 -16 c-34 -18
-94 -19 -139 -4 l-31 11 0 142 c0 138 1 143 23 154 29 14 106 15 146 1z m875
-558 c25 1 49 0 52 -4 14 -14 -10 -27 -49 -27 -34 1 -46 6 -62 28 -12 18 -14
23 -3 14 8 -7 36 -11 62 -11z m1146 -10 c0 -12 -44 -19 -75 -13 -43 8 -27 22
25 22 28 0 50 -4 50 -9z m120 -686 l0 -215 -895 0 -895 0 0 215 0 215 895 0
895 0 0 -215z m292 0 l-3 -215 -140 0 -140 0 2 215 2 215 141 0 141 0 -3 -215z
m-292 -270 l0 -45 -895 0 -895 0 0 45 0 45 895 0 895 0 0 -45z m400 3 l0 -43
-195 -2 -195 -1 0 44 0 44 195 0 195 0 0 -42z"/>
<path d="M1604 2655 c-9 -23 3 -45 25 -45 23 0 32 18 19 43 -11 21 -37 22 -44
2z"/>
<path d="M1610 2550 c0 -20 5 -30 15 -30 10 0 15 10 15 30 0 20 -5 30 -15 30
-10 0 -15 -10 -15 -30z"/>
<path d="M1608 2468 c-10 -10 -14 -18 -9 -18 5 0 13 -10 17 -22 6 -20 7 -21
17 -2 6 10 13 21 17 24 3 3 -1 12 -9 20 -14 13 -18 13 -33 -2z"/>
<path d="M1600 2140 l0 -190 23 1 c14 1 16 3 6 6 -14 3 -16 19 -16 88 0 83 0
85 23 85 13 0 24 5 24 10 0 6 -10 8 -24 4 -23 -6 -23 -5 -24 86 0 92 0 92 24
87 14 -2 27 0 30 4 3 5 -11 9 -30 9 l-36 0 0 -190z"/>
<path d="M780 2661 c0 -10 24 -21 47 -21 13 0 13 3 3 15 -13 16 -50 21 -50 6z"/>
<path d="M857 2664 c-10 -11 3 -24 24 -24 10 0 19 7 19 15 0 15 -31 21 -43 9z"/>
<path d="M1360 2654 c0 -9 7 -14 17 -12 25 5 28 28 4 28 -12 0 -21 -6 -21 -16z"/>
<path d="M1410 2656 c0 -8 14 -12 48 -10 66 3 69 3 53 13 -22 14 -101 12 -101
-3z"/>
<path d="M1730 2657 c0 -7 14 -14 31 -15 28 -2 29 -1 16 13 -19 18 -47 20 -47
2z"/>
<path d="M1807 2664 c-10 -11 3 -24 24 -24 10 0 19 7 19 15 0 15 -31 21 -43 9z"/>
<path d="M2305 2660 c-8 -12 20 -24 35 -15 6 3 8 11 5 16 -8 12 -32 12 -40 -1z"/>
<path d="M2360 2657 c0 -9 14 -13 48 -13 60 1 58 20 -3 24 -32 1 -45 -2 -45
-11z"/>
<path d="M2181 2543 c-1 -13 3 -23 8 -23 6 0 12 -15 14 -32 3 -23 4 -18 4 14
0 26 -4 45 -8 42 -4 -2 -10 2 -12 8 -3 7 -6 3 -6 -9z"/>
<path d="M2037 2523 c-3 -5 14 -8 38 -8 24 0 41 3 38 8 -2 4 -19 7 -38 7 -19
0 -36 -3 -38 -7z"/>
<path d="M2130 2453 c1 -36 1 -37 16 -18 14 19 15 18 9 -13 -4 -22 -2 -31 5
-27 15 9 12 64 -4 81 -22 21 -26 17 -26 -23z"/>
<path d="M2243 2443 c-7 -15 -11 -29 -8 -31 3 -3 6 1 6 9 1 8 5 -4 8 -26 8
-55 18 -32 11 27 -5 47 -5 47 -17 21z"/>
<path d="M2280 2460 c0 -8 -2 -44 -4 -80 -3 -47 -1 -58 5 -41 14 36 19 105 8
122 -7 12 -9 12 -9 -1z"/>
<path d="M2207 2423 c-2 -5 -7 -26 -10 -48 l-6 -40 12 33 c7 18 15 30 19 27 4
-4 4 2 1 14 -6 22 -9 25 -16 14z"/>
<path d="M1943 2383 c-7 -2 -13 -12 -13 -20 0 -13 3 -13 15 -3 8 7 24 10 36 7
16 -4 18 -3 8 9 -12 14 -24 16 -46 7z"/>
<path d="M1828 2329 c-2 -22 -1 -42 3 -45 12 -7 28 21 20 35 -5 7 -6 22 -4 32
3 10 1 19 -5 19 -5 0 -12 -18 -14 -41z"/>
<path d="M2161 2346 c-12 -14 -5 -46 10 -46 5 0 9 14 9 30 0 34 -3 36 -19 16z"/>
<path d="M1915 2322 c-17 -17 1 -27 50 -28 35 0 52 3 46 9 -11 11 -88 27 -96
19z"/>
<path d="M2207 2323 c-4 -3 -7 -14 -7 -23 0 -24 -26 -46 -33 -28 -4 8 -6 7 -6
-4 -2 -32 -86 -71 -167 -76 -76 -5 -86 -12 -58 -40 15 -15 16 -14 10 6 -12 37
3 25 21 -18 21 -46 43 -60 43 -26 0 19 14 30 75 59 56 27 81 46 98 74 29 46
45 97 24 76z"/>
<path d="M1916 2267 c3 -9 16 -12 34 -9 41 6 38 22 -5 22 -24 0 -33 -4 -29
-13z"/>
<path d="M2398 2005 c18 -8 31 -20 30 -27 -2 -7 8 -14 20 -16 19 -3 23 0 20
15 -2 10 -8 18 -13 19 -6 0 -23 6 -38 12 -16 7 -34 12 -40 12 -7 -1 3 -7 21
-15z"/>
<path d="M1170 2540 c0 -19 37 -36 65 -30 l30 7 -32 8 c-18 4 -33 11 -33 15 0
3 -7 7 -15 7 -8 0 -15 -3 -15 -7z"/>
<path d="M1230 2460 c-13 -9 -13 -11 0 -20 13 -8 13 -10 -2 -10 -10 0 -22 -9
-28 -19 -19 -37 -10 -35 30 7 23 23 44 42 47 42 4 0 15 -7 25 -17 20 -18 25
-4 6 15 -14 14 -57 15 -78 2z"/>
<path d="M1236 2397 c-13 -10 -15 -16 -8 -21 7 -4 12 -2 12 4 0 6 5 8 10 5 6
-4 8 -11 4 -16 -4 -7 5 -9 22 -7 21 2 29 8 29 23 0 25 -41 32 -69 12z"/>
<path d="M1052 2388 c-7 -7 -12 -8 -12 -2 -1 5 -7 -6 -15 -25 -18 -40 -20 -75
-4 -65 9 5 10 -4 6 -32 -5 -27 -4 -33 3 -19 7 16 9 13 9 -17 1 -20 -3 -49 -9
-63 -7 -19 -6 -47 5 -98 18 -85 18 -87 5 -87 -5 0 -10 7 -10 15 0 8 -4 15 -10
15 -5 0 -10 -7 -10 -15 0 -9 -9 -15 -25 -15 -16 0 -25 6 -25 15 0 8 -4 15 -10
15 -5 0 -8 10 -6 23 4 30 33 35 39 5 4 -20 4 -20 6 5 1 33 -24 47 -46 25 -8
-9 -15 -32 -16 -51 -1 -29 -4 -34 -14 -25 -10 8 -13 7 -13 -5 0 -8 9 -17 20
-20 13 -3 18 -1 13 6 -4 7 0 8 13 3 54 -23 192 -23 186 -1 -1 5 -18 8 -37 7
-34 -3 -34 -3 -25 27 5 18 5 33 -1 36 -5 4 -9 32 -9 63 l0 56 33 -32 c18 -18
38 -32 45 -32 7 0 12 -4 12 -9 0 -5 9 -13 20 -16 14 -5 33 3 62 26 l41 33 -6
-31 c-4 -22 -2 -33 8 -37 9 -3 12 0 8 10 -3 8 3 24 12 34 11 12 13 20 6 20 -8
0 -9 5 -1 19 5 11 10 37 11 58 0 21 3 32 6 25 6 -16 23 -5 23 15 0 9 -3 13 -7
9 -4 -4 -13 8 -19 26 l-12 33 -3 -35 c-1 -19 -3 -47 -4 -62 -1 -15 -14 -43
-29 -62 -45 -59 -134 -60 -156 -1 -5 14 -12 25 -14 25 -3 0 -3 -7 1 -16 5 -14
3 -14 -16 -2 -12 7 -24 22 -26 33 -17 89 -25 147 -21 153 3 5 20 7 38 4 29 -4
31 -3 15 9 -16 13 -16 14 7 14 13 0 22 -3 20 -7 -3 -4 2 -5 11 -2 12 5 13 9 4
20 -14 17 -61 18 -77 2z"/>
<path d="M1160 2354 c-9 -11 -15 -32 -15 -48 0 -28 3 -30 39 -30 25 -1 41 4
44 13 3 10 -2 12 -22 7 -34 -8 -51 1 -36 19 6 8 10 24 8 36 -3 21 -4 21 -18 3z"/>
<path d="M1193 2351 c-1 -11 5 -25 13 -32 15 -12 17 -6 8 29 -8 27 -19 29 -21
3z"/>
<path d="M959 2288 c-1 -7 -3 -26 -5 -43 -3 -28 -2 -29 12 -11 16 23 19 66 4
66 -5 0 -11 -6 -11 -12z"/>
<path d="M1137 2219 l-22 -18 28 -1 c15 0 27 5 27 11 0 7 17 8 48 4 44 -7 46
-6 26 8 -27 21 -80 18 -107 -4z"/>
<path d="M1183 2183 c-32 -4 -47 -23 -19 -23 29 0 76 13 76 21 0 5 -6 8 -12 7
-7 0 -28 -3 -45 -5z"/>
<path d="M820 2000 c0 -5 14 -10 30 -10 17 0 30 5 30 10 0 6 -13 10 -30 10
-16 0 -30 -4 -30 -10z"/>
<path d="M2610 2467 c0 -7 9 -13 20 -14 11 -1 20 4 20 13 0 8 -9 14 -20 14
-11 0 -20 -6 -20 -13z"/>
<path d="M2642 2403 c3 -36 18 -48 27 -22 2 7 -2 9 -10 5 -8 -4 -7 -1 2 6 14
11 15 17 4 31 -19 27 -26 20 -23 -20z"/>
<path d="M2190 1978 c0 -13 41 -20 55 -8 10 8 14 8 17 -1 3 -8 11 -10 24 -5
17 7 18 8 2 17 -19 10 -98 8 -98 -3z"/>
<path d="M2622 1905 c-32 -30 -52 -55 -47 -55 6 0 35 25 65 55 71 71 55 72
-18 0z"/>
<path d="M1357 1794 c-10 -11 3 -24 24 -24 23 0 25 15 3 24 -19 7 -19 7 -27 0z"/>
<path d="M1410 1786 c0 -16 96 -21 105 -6 3 6 3 10 -2 11 -75 8 -103 7 -103
-5z"/>
<path d="M840 1780 c0 -5 14 -10 30 -10 17 0 30 5 30 10 0 6 -13 10 -30 10
-16 0 -30 -4 -30 -10z"/>
<path d="M1140 1770 c-85 -11 -139 -29 -158 -51 -9 -11 -27 -30 -38 -42 -31
-32 -62 -96 -70 -142 -3 -22 -10 -48 -15 -57 -6 -11 -6 -18 0 -18 10 0 71 139
71 162 0 19 90 106 90 88 1 -11 3 -11 11 3 14 25 25 21 24 -9 0 -14 -8 -31
-17 -38 -10 -7 -18 -20 -18 -29 0 -8 -8 -18 -17 -21 -12 -5 -13 -10 -5 -18 8
-8 8 -17 1 -31 -8 -13 -8 -22 0 -30 10 -10 11 -7 26 66 4 23 35 34 35 14 0 -6
3 -8 6 -5 3 4 1 16 -6 27 -8 15 -8 21 0 21 6 0 10 10 8 23 -3 24 29 70 44 61
5 -3 6 -20 2 -37 -3 -18 -3 -29 1 -25 13 12 34 -12 28 -30 -4 -13 -3 -14 5 -3
8 11 10 11 14 0 3 -9 7 -7 12 6 4 11 4 17 1 13 -10 -10 -45 29 -45 50 0 14 2
15 10 2 5 -8 10 -11 10 -6 0 5 8 2 17 -5 15 -12 16 -12 11 2 -5 13 -1 16 18
15 13 0 24 -5 24 -10 0 -5 3 -6 7 -3 3 4 13 1 22 -6 14 -10 14 -10 4 4 -33 42
34 19 81 -28 18 -18 25 -34 22 -48 -4 -14 1 -25 14 -33 19 -11 19 -12 -5 -38
-27 -29 -32 -58 -13 -70 7 -5 8 -3 3 7 -8 12 -6 12 8 0 9 -7 14 -17 12 -22 -3
-4 3 -13 14 -18 11 -6 22 -21 24 -33 4 -20 4 -20 6 4 0 15 -4 30 -10 33 -6 4
-7 19 -4 35 6 28 -14 57 -23 32 -2 -7 -8 -12 -13 -12 -6 0 1 15 14 33 22 31
26 77 6 77 -5 0 -9 8 -9 19 0 10 -7 24 -15 31 -9 7 -14 18 -12 24 5 14 -10 27
-54 48 -49 22 -93 28 -159 18z"/>
<path d="M1195 1691 c-3 -6 -1 -11 5 -11 7 0 10 -6 7 -13 -2 -7 -1 -30 3 -52
8 -36 8 -34 6 18 -3 59 -9 76 -21 58z"/>
<path d="M1080 1551 c0 -33 -4 -63 -10 -66 -15 -9 -12 -25 4 -19 9 3 17 -3 21
-16 13 -40 15 -14 4 49 -8 46 -8 69 0 87 9 19 8 24 -4 24 -12 0 -15 -14 -15
-59z"/>
<path d="M1250 1566 c0 -13 -4 -36 -10 -50 -5 -15 -6 -26 0 -26 4 0 11 8 13
18 4 15 5 15 6 -1 0 -10 7 -17 14 -14 13 4 14 21 2 50 -6 13 -2 17 16 17 26 0
16 14 -18 25 -20 5 -23 3 -23 -19z"/>
<path d="M888 1470 c-10 -41 -8 -74 3 -63 6 6 9 28 7 49 -3 33 -5 35 -10 14z"/>
<path d="M952 1469 c-15 -24 -16 -69 -1 -69 6 0 9 7 5 15 -3 8 -1 15 4 15 5 0
7 7 4 15 -4 8 -2 15 4 15 13 0 23 -27 16 -45 -4 -10 -2 -13 8 -10 9 4 15 20
16 43 0 26 -2 31 -7 18 -7 -19 -8 -19 -22 2 -15 20 -15 20 -27 1z"/>
<path d="M1148 1448 c-2 -13 -1 -39 3 -58 5 -30 7 -26 8 23 1 58 -4 74 -11 35z"/>
<path d="M1181 1458 c-1 -9 4 -20 10 -23 6 -4 15 -17 20 -29 8 -19 8 -18 6 7
-1 15 -6 27 -12 27 -5 -1 -12 7 -16 17 -7 16 -8 16 -8 1z"/>
<path d="M1120 1420 c-10 -25 -7 -71 4 -59 5 5 16 89 12 89 -2 0 -9 -13 -16
-30z"/>
<path d="M1325 1420 c-4 -6 -14 -9 -22 -6 -8 4 -11 1 -7 -5 3 -6 16 -8 29 -5
15 4 25 1 29 -9 3 -8 12 -12 21 -9 11 5 14 0 13 -20 -2 -25 -18 -38 -18 -15 0
14 -68 5 -84 -11 -8 -9 -3 -11 19 -9 50 4 65 0 65 -17 0 -12 -6 -15 -25 -10
-27 7 -75 -2 -75 -14 0 -4 11 -5 24 -3 13 3 33 0 45 -6 15 -8 21 -9 21 -1 0 6
5 8 10 5 6 -3 10 -21 10 -38 0 -18 7 -45 15 -61 8 -15 15 -36 15 -45 1 -14 2
-14 11 2 8 13 7 24 -3 40 -16 25 -22 167 -7 167 5 0 9 12 8 28 l-1 27 -8 -25
c-7 -22 -8 -20 -9 15 -1 32 -4 37 -12 23 -9 -16 -12 -17 -34 -2 -16 11 -25 12
-30 4z"/>
<path d="M902 1387 c-15 -41 -15 -47 -2 -47 15 0 31 49 22 66 -6 10 -11 6 -20
-19z"/>
<path d="M1050 1328 c0 -47 4 -68 9 -59 5 8 7 21 3 29 -3 10 -1 13 6 8 7 -4
12 -3 12 3 0 5 -4 13 -10 16 -5 3 -7 19 -4 34 4 16 1 32 -5 35 -8 5 -11 -15
-11 -66z"/>
<path d="M980 1380 c-9 -6 -11 -13 -5 -17 6 -5 12 -19 13 -33 2 -14 6 -27 8
-29 9 -10 11 7 5 46 -5 35 -9 41 -21 33z"/>
<path d="M859 1358 c0 -13 -2 -41 -4 -63 -2 -22 -1 -34 2 -27 2 6 8 10 11 8 4
-2 7 20 7 50 0 30 -3 54 -7 54 -5 0 -8 -10 -9 -22z"/>
<path d="M935 1337 c-14 -21 -14 -28 -1 -58 11 -25 16 -29 17 -14 0 11 3 37 4
58 4 43 1 46 -20 14z"/>
<path d="M1145 1330 c3 -6 0 -17 -8 -25 -9 -8 -13 -24 -10 -35 8 -29 26 -25
21 5 -3 14 -1 25 3 25 5 0 9 9 9 20 0 11 -5 20 -11 20 -5 0 -7 -5 -4 -10z"/>
<path d="M1190 1278 c25 -66 37 -78 32 -30 -3 20 -11 41 -18 45 -8 4 -14 15
-14 22 0 8 -4 15 -10 15 -5 0 -1 -23 10 -52z"/>
<path d="M986 1274 c-3 -9 -6 -23 -6 -32 0 -13 5 -11 19 8 19 23 19 40 1 40
-4 0 -11 -7 -14 -16z"/>
<path d="M909 1225 c-9 -22 -21 -57 -27 -77 -14 -50 -4 -49 98 3 75 38 103 57
63 42 -16 -6 -16 -4 1 15 26 30 13 39 -20 13 -15 -11 -33 -21 -40 -21 -7 0
-14 -10 -16 -22 -2 -12 -8 -23 -15 -25 -9 -3 -10 4 -3 26 4 16 5 33 2 37 -4 4
-1 4 6 0 7 -4 12 -1 12 8 0 9 -7 16 -15 16 -15 0 -19 -14 -16 -55 1 -11 -5
-29 -14 -40 -9 -11 -14 -14 -10 -7 3 6 1 12 -6 12 -8 0 -9 3 0 13 6 8 8 17 4
20 -3 4 0 13 6 21 7 8 11 25 9 38 -3 20 -6 17 -19 -17z"/>
<path d="M1077 1253 c-3 -5 0 -19 5 -33 10 -24 11 -24 18 -5 13 31 11 45 -4
45 -8 0 -17 -3 -19 -7z"/>
<path d="M1420 1248 c0 -8 14 -24 30 -36 17 -13 30 -31 30 -42 0 -11 5 -20 10
-20 21 0 8 30 -30 70 -22 23 -40 35 -40 28z"/>
<path d="M835 1232 c-3 -3 -5 -16 -5 -30 0 -21 2 -22 15 -12 12 10 15 9 15 -4
0 -10 5 -14 11 -11 6 4 8 13 5 20 -2 7 1 18 7 25 9 10 9 11 0 6 -7 -4 -13 -3
-13 2 0 9 -27 12 -35 4z"/>
<path d="M1133 1185 c1 -16 8 -36 15 -43 25 -27 10 -32 -93 -32 -58 0 -105 -4
-105 -8 0 -5 46 -9 103 -10 93 -1 104 1 115 19 11 18 11 23 -3 32 -8 7 -20 26
-25 42 l-9 30 2 -30z"/>
<path d="M820 1131 c0 -5 6 -12 13 -14 10 -4 10 -6 0 -6 -21 -1 -15 -21 6 -21
13 0 19 7 19 25 0 18 -6 25 -19 25 -11 0 -19 -4 -19 -9z"/>
<path d="M1604 1776 c-9 -24 4 -48 23 -44 24 4 24 52 0 56 -9 2 -20 -4 -23
-12z"/>
<path d="M1616 1703 c-12 -13 -6 -53 9 -53 9 0 15 9 15 24 0 26 -12 40 -24 29z"/>
<path d="M1610 1591 c-13 -14 -13 -18 0 -31 13 -13 17 -13 30 0 14 14 14 17 0
31 -13 14 -16 14 -30 0z"/>
<path d="M1600 1250 c0 -174 1 -190 18 -190 12 0 14 2 4 8 -16 11 -15 172 2
172 7 0 7 3 -1 8 -8 5 -12 37 -11 96 1 87 1 88 24 83 13 -2 24 0 24 4 0 5 -13
9 -30 9 l-30 0 0 -190z"/>
<path d="M781 1013 c-1 -19 4 -23 27 -23 171 -1 1478 3 1572 4 115 2 125 4
127 22 2 10 0 13 -3 7 -8 -19 -1710 -19 -1717 0 -3 6 -6 2 -6 -10z"/>
<path d="M880 905 c0 -67 15 -73 19 -8 1 26 8 51 14 55 8 5 4 8 -10 8 -21 0
-23 -5 -23 -55z"/>
<path d="M1002 940 c-28 -13 -41 -24 -36 -31 4 -7 3 -9 -3 -6 -17 11 -28 -14
-32 -69 -4 -74 17 -109 84 -139 67 -31 84 -31 145 0 66 33 84 63 83 133 -1 45
-6 59 -29 83 -49 51 -137 63 -212 29z m138 0 c20 -5 45 -17 55 -25 17 -13 17
-14 2 -9 -13 5 -16 2 -11 -10 4 -11 0 -16 -14 -16 -12 0 -24 -4 -27 -10 -3 -5
-15 -10 -26 -10 -11 0 -17 5 -14 10 3 6 14 10 24 10 10 0 26 9 36 20 10 11 13
20 8 20 -6 0 -24 3 -41 6 -25 5 -31 2 -37 -17 l-8 -24 -9 24 c-6 18 -13 22
-31 17 -12 -3 -30 -6 -40 -6 -16 0 -17 -2 -3 -15 17 -18 30 -20 20 -3 -5 7 -2
9 8 5 9 -3 20 -1 25 4 6 6 10 4 10 -5 0 -8 -3 -14 -6 -14 -13 3 -68 -14 -94
-29 -28 -15 -29 -15 -17 6 6 12 15 19 21 16 5 -4 10 -1 10 4 1 6 2 15 3 20 4
32 91 49 156 31z m80 -65 c0 -21 -43 -46 -91 -52 -33 -5 -41 -3 -37 8 5 15 39
27 85 28 24 1 31 5 27 16 -4 8 -1 15 5 15 6 0 11 -7 11 -15z m-177 -21 c37 -7
54 -34 20 -34 -31 0 -93 21 -93 30 0 11 20 12 73 4z m-54 -27 l30 -13 -29 -18
c-17 -9 -30 -25 -30 -34 0 -14 -2 -15 -10 -2 -6 9 -5 17 2 21 7 4 7 9 -1 13
-13 8 -15 46 -2 46 5 0 23 -6 40 -13z m241 -11 c0 -31 -17 -37 -51 -17 l-27
15 31 12 c46 17 47 16 47 -10z m-150 -17 c0 -6 -4 -19 -10 -29 -8 -16 -15 -17
-46 -8 -20 5 -38 7 -42 4 -3 -3 9 -9 26 -12 17 -3 33 -12 36 -20 3 -8 17 -14
31 -14 14 0 25 -6 25 -12 0 -9 4 -8 10 2 7 12 4 16 -18 20 -15 3 -22 8 -17 12
6 3 26 0 45 -9 l35 -14 -25 -14 c-30 -17 -60 -19 -60 -4 0 5 -4 8 -9 5 -12 -8
-41 4 -41 16 0 5 5 6 12 2 7 -5 8 -3 3 6 -6 10 -11 9 -21 -5 -11 -15 -16 -16
-29 -5 -9 7 -15 23 -13 34 5 33 108 76 108 45z m77 -4 c40 -17 40 -22 -6 -35
-26 -7 -33 -5 -46 13 -29 41 -11 48 52 22z m46 -55 c-28 -30 -29 -30 -45 -11
-17 20 -16 20 18 27 19 3 37 11 40 16 3 5 8 7 11 4 3 -3 -8 -19 -24 -36z"/>
<path d="M1262 953 c13 -3 18 -18 21 -56 l3 -52 2 58 c2 53 1 57 -20 56 -17
-1 -18 -3 -6 -6z"/>
<path d="M1390 945 c0 -11 11 -14 40 -12 22 1 40 7 40 12 0 6 -18 11 -40 12
-29 2 -40 -1 -40 -12z"/>
<path d="M1480 945 c0 -8 9 -15 20 -15 11 0 20 7 20 15 0 8 -9 15 -20 15 -11
0 -20 -7 -20 -15z"/>
<path d="M2261 943 c0 -11 3 -13 6 -5 2 6 9 12 14 12 6 0 8 -4 5 -9 -3 -4 7
-8 22 -7 15 1 28 4 30 9 5 17 1 19 -13 7 -12 -10 -19 -10 -27 -2 -18 18 -38
14 -37 -5z"/>
<path d="M2370 945 c0 -8 9 -15 20 -15 11 0 20 7 20 15 0 8 -9 15 -20 15 -11
0 -20 -7 -20 -15z"/>
<path d="M1341 873 l-1 -33 585 0 585 0 -1 33 c-2 30 -2 30 -6 5 -4 -27 -7
-28 -58 -28 -33 0 -55 5 -58 13 -4 10 -6 10 -6 0 -1 -7 -10 -13 -20 -13 -11 0
-22 6 -24 13 -4 10 -6 10 -6 0 -1 -8 -16 -13 -40 -13 -22 0 -42 5 -44 13 -4
10 -6 10 -6 0 -1 -7 -10 -13 -20 -13 -11 0 -22 6 -24 13 -4 10 -6 10 -6 0 -1
-8 -17 -13 -45 -13 -26 0 -46 5 -49 13 -4 10 -6 10 -6 0 -1 -7 -10 -13 -20
-13 -11 0 -22 6 -24 13 -4 10 -6 10 -6 0 -1 -9 -19 -13 -55 -13 -52 0 -55 1
-59 28 l-4 27 -2 -27 c-1 -27 -3 -28 -55 -28 -34 0 -56 5 -59 13 -4 10 -6 10
-6 0 -1 -7 -10 -13 -20 -13 -11 0 -22 6 -24 13 -4 10 -6 10 -6 0 -1 -16 -81
-18 -81 -3 0 6 -8 5 -20 -2 -17 -11 -22 -10 -30 2 -6 10 -10 11 -10 3 0 -9
-16 -13 -44 -13 -26 0 -46 5 -49 13 -4 10 -6 10 -6 0 -1 -7 -10 -13 -20 -13
-11 0 -22 6 -24 13 -4 10 -6 10 -6 0 -1 -9 -19 -13 -55 -13 -52 0 -55 1 -59
28 -4 25 -4 25 -6 -5z"/>
<path d="M1603 803 c48 -2 126 -2 175 0 48 1 8 3 -88 3 -96 0 -136 -2 -87 -3z"/>
<path d="M2130 780 c0 -16 5 -30 10 -30 6 0 10 14 10 30 0 17 -4 30 -10 30 -5
0 -10 -13 -10 -30z"/>
<path d="M880 737 c0 -53 2 -57 23 -56 17 1 18 2 4 6 -13 3 -17 14 -15 49 0
24 -2 47 -5 51 -4 3 -7 -19 -7 -50z"/>
<path d="M1280 741 c0 -39 -4 -51 -17 -54 -14 -4 -12 -5 5 -6 20 -1 22 3 22
54 0 30 -2 55 -5 55 -3 0 -5 -22 -5 -49z"/>
<path d="M1410 735 c0 -49 3 -51 40 -32 42 22 60 27 60 17 0 -6 -7 -10 -15
-10 -8 0 -15 -4 -15 -10 0 -11 30 -1 48 17 17 17 35 17 29 1 -2 -7 -11 -12
-18 -10 -11 3 -11 1 -2 -9 10 -10 17 -9 33 9 26 28 40 28 41 0 0 -16 2 -18 6
-8 11 27 28 30 46 7 l18 -22 -6 23 c-8 28 -2 28 44 0 l36 -22 -19 22 c-20 24
-6 31 16 9 7 -8 26 -17 41 -21 26 -6 27 -5 27 39 l0 45 -205 0 -205 0 0 -45z
m75 25 c3 -5 11 -10 16 -10 6 0 7 5 4 10 -4 6 5 10 19 10 14 0 26 -4 26 -10 0
-5 5 -10 11 -10 5 0 7 5 4 10 -4 6 5 10 19 10 17 0 26 -6 26 -15 0 -12 -13
-15 -64 -14 -45 1 -71 -3 -87 -15 -27 -18 -39 -20 -39 -6 0 6 8 10 18 11 15 0
14 2 -3 10 -17 8 -15 8 7 4 22 -4 26 -2 22 10 -7 17 11 21 21 5z m175 -5 c0
-8 -9 -15 -20 -15 -11 0 -20 7 -20 15 0 8 9 15 20 15 11 0 20 -7 20 -15z m65
5 c-8 -13 1 -13 26 0 14 8 25 7 39 -3 17 -12 12 -14 -50 -14 -55 -1 -68 2 -63
13 3 8 16 14 30 14 13 0 21 -4 18 -10z"/>
<path d="M1932 720 c1 -29 3 -35 5 -17 l4 28 85 -2 c46 -1 87 1 91 5 3 3 -35
6 -84 6 -64 0 -93 4 -96 13 -3 6 -5 -8 -5 -33z"/>
<path d="M2340 750 c0 -6 -37 -10 -92 -10 -50 0 -88 -3 -85 -6 4 -4 43 -6 88
-5 59 2 84 -1 90 -11 6 -9 9 -4 9 15 0 15 -2 27 -5 27 -3 0 -5 -4 -5 -10z"/>
<path d="M2130 680 c0 -16 5 -30 10 -30 6 0 10 14 10 30 0 17 -4 30 -10 30 -5
0 -10 -13 -10 -30z"/>
<path d="M1520 660 c0 -6 63 -10 170 -10 107 0 170 4 170 10 0 6 -63 10 -170
10 -107 0 -170 -4 -170 -10z"/>
<path d="M1727 1793 c-14 -13 -6 -19 26 -21 30 -2 31 -1 13 13 -22 17 -29 18
-39 8z"/>
<path d="M1808 1792 c-29 -6 -20 -22 12 -22 17 0 30 4 30 9 0 12 -21 18 -42
13z"/>
<path d="M2300 1786 c0 -9 23 -13 80 -13 106 0 103 21 -3 24 -55 1 -77 -2 -77
-11z"/>
<path d="M2234 1643 c7 -23 -7 -32 -19 -13 -7 12 -55 13 -72 2 -13 -8 -29 -62
-18 -62 3 0 18 14 32 30 27 33 44 37 62 16 9 -11 4 -15 -29 -20 -39 -6 -57
-26 -24 -26 14 0 15 -2 3 -17 -8 -9 -9 -14 -2 -10 6 4 14 1 16 -5 4 -10 6 -10
6 0 1 6 8 12 17 12 8 0 12 -4 9 -10 -3 -5 0 -11 7 -11 7 -1 0 -4 -17 -8 -16
-4 -32 -4 -35 0 -3 3 -20 14 -38 23 -26 13 -37 15 -48 6 -7 -7 -22 -9 -31 -5
-17 6 -17 7 0 20 18 13 18 14 -3 35 -22 22 -52 20 -78 -4 -10 -10 -7 -12 17
-8 16 2 37 -1 48 -7 15 -8 9 -10 -29 -11 -46 0 -46 0 -52 -37 -7 -46 8 -250
19 -260 4 -5 10 -2 12 4 3 9 14 6 36 -11 60 -45 132 -72 125 -47 -4 12 89 93
95 84 8 -13 -1 -75 -14 -108 -21 -51 -19 -60 7 -29 14 17 23 38 20 52 -2 12 0
22 4 22 4 0 8 26 9 57 0 32 8 80 17 106 15 45 15 53 -1 105 -22 75 -37 109
-28 62 4 -19 6 -45 6 -57 0 -13 3 -20 8 -17 5 3 9 -4 9 -16 0 -12 -4 -18 -10
-15 -6 4 -10 -15 -10 -51 0 -52 -3 -60 -34 -89 -50 -46 -129 -61 -190 -35 -54
23 -64 40 -62 104 1 48 2 50 41 63 26 8 49 26 64 49 l24 35 22 -27 c17 -21 32
-28 73 -32 l52 -5 -4 87 c-1 47 -6 89 -11 93 -4 5 -4 -2 -1 -14z m-205 -138
c1 -14 -6 -20 -24 -21 -16 -1 -25 3 -25 13 0 9 6 13 15 9 8 -3 15 -1 15 4 0 6
-8 10 -17 11 -15 0 -15 2 2 9 13 6 15 9 5 9 -13 1 -13 2 0 11 16 10 28 -8 29
-45z"/>
<path d="M2103 1482 c-13 -2 -23 -7 -23 -12 0 -8 62 -21 69 -14 11 10 -26 30
-46 26z"/>
<path d="M1931 1386 c1 -50 5 -82 10 -75 8 14 3 148 -7 158 -2 3 -4 -34 -3
-83z"/>
<path d="M1885 1441 c-3 -6 -2 -27 4 -47 5 -19 8 -41 5 -48 -2 -6 2 -20 9 -30
12 -16 12 -8 5 55 -9 78 -12 87 -23 70z"/>
<path d="M2066 1398 c-12 -9 -18 -20 -14 -24 4 -4 14 -2 22 5 7 6 35 12 61 13
34 0 44 3 35 12 -17 17 -81 13 -104 -6z"/>
<path d="M2083 1363 c-7 -2 -13 -11 -13 -19 0 -12 4 -12 21 -3 12 6 36 8 57 4
32 -6 34 -5 23 9 -13 15 -62 20 -88 9z"/>
<path d="M1871 1258 c-17 -44 -30 -109 -24 -124 2 -7 11 -10 18 -8 10 4 12 -1
9 -18 -4 -21 -4 -21 5 -3 6 14 4 25 -5 36 -8 8 -14 26 -13 40 l0 24 9 -22 c5
-13 15 -23 22 -23 11 0 11 2 0 8 -17 11 -12 92 6 92 6 0 12 7 12 15 0 27 -25
16 -39 -17z"/>
<path d="M1973 1249 c-8 -8 -6 -19 5 -41 8 -17 16 -49 18 -71 4 -46 3 -44 29
-47 44 -5 85 1 85 11 0 7 -15 10 -39 7 -43 -4 -61 12 -61 56 0 14 -4 27 -9 31
-6 3 -8 19 -6 35 4 31 -3 38 -22 19z"/>
<path d="M1950 1192 c0 -16 7 -35 15 -42 13 -11 15 -8 15 14 0 15 -4 25 -10
21 -5 -3 -7 0 -4 8 3 8 1 18 -5 22 -7 4 -11 -5 -11 -23z"/>
<path d="M1928 1158 c3 -14 1 -19 -6 -14 -7 4 -10 -1 -7 -14 2 -11 -1 -20 -6
-20 -6 0 -8 -4 -5 -9 8 -13 87 -19 83 -6 -2 5 -16 11 -32 13 -21 3 -25 6 -14
13 8 5 9 9 2 9 -6 0 -9 8 -6 19 3 10 0 22 -5 25 -6 4 -8 -3 -4 -16z"/>
<path d="M167 1500 c3 -11 11 -20 19 -20 7 0 12 9 11 20 -1 12 -8 20 -18 20
-12 0 -16 -6 -12 -20z"/>
<path d="M255 1614 c-11 -12 -15 -30 -13 -63 l3 -46 78 0 c76 0 113 17 50 23
-30 3 -33 6 -33 37 0 57 -49 85 -85 49z m63 -51 c3 -31 1 -33 -27 -33 -27 0
-31 3 -31 28 0 35 8 44 35 40 15 -2 21 -12 23 -35z"/>
<path d="M240 1430 l0 -60 80 0 80 0 0 60 c0 33 -4 60 -10 60 -5 0 -10 -22
-10 -50 0 -47 -2 -50 -25 -50 -23 0 -25 4 -25 45 0 25 -4 45 -10 45 -5 0 -10
-20 -10 -45 0 -41 -2 -45 -25 -45 -23 0 -25 3 -25 50 0 28 -4 50 -10 50 -6 0
-10 -27 -10 -60z"/>
<path d="M1475 144 c-15 -15 -15 -18 1 -35 16 -18 18 -18 36 -2 17 15 17 17 2
35 -21 22 -19 22 -39 2z"/>
<path d="M1649 155 c-3 -2 -19 -5 -37 -7 -18 -1 -32 -6 -32 -10 0 -12 68 -10
75 3 7 11 2 23 -6 14z"/>
<path d="M841 123 c-9 -16 -12 -16 -21 -3 -9 13 -10 13 -10 0 0 -13 -1 -13
-10 0 -5 8 -12 11 -15 8 -24 -24 21 -28 286 -28 l279 0 -1 23 c-1 16 -2 18 -6
5 -4 -17 -24 -18 -251 -17 -136 0 -241 3 -234 6 6 2 12 9 12 14 0 15 -18 10
-29 -8z"/>
<path d="M1220 132 c0 -4 14 -9 30 -10 17 -1 30 2 30 8 0 5 -13 10 -30 10 -16
0 -30 -4 -30 -8z"/>
<path d="M2080 112 c0 -4 14 -9 30 -10 17 -1 30 2 30 8 0 5 -13 10 -30 10 -16
0 -30 -4 -30 -8z"/>
<path d="M51 2943 l-23 -18 22 -20 c20 -18 21 -18 41 1 19 20 19 21 1 37 -18
17 -20 17 -41 0z"/>
<path d="M2907 2945 c-17 -17 -13 -40 8 -49 7 -2 20 3 29 13 15 16 15 19 -3
35 -17 15 -20 16 -34 1z"/>
<path d="M1150 2943 c0 -10 -49 -14 -207 -15 l-208 -2 210 -6 c116 -3 305 -3
420 0 l210 5 -205 3 c-148 2 -206 6 -212 15 -6 9 -8 9 -8 0z"/>
<path d="M2090 2943 c0 -10 -49 -14 -207 -15 l-208 -2 210 -6 c116 -3 305 -3
420 0 l210 5 -205 3 c-148 2 -206 6 -212 15 -6 9 -8 9 -8 0z"/>
<path d="M381 2913 c0 -11 3 -13 6 -5 3 8 33 12 98 12 65 0 95 -4 98 -12 3 -8
6 -6 6 5 1 15 -10 17 -104 17 -94 0 -105 -2 -104 -17z"/>
<path d="M2072 2891 c-21 -13 -12 -85 11 -89 10 -2 24 4 31 14 12 15 13 15 19
0 10 -25 36 -19 50 12 6 15 16 30 22 34 6 5 3 8 -6 8 -9 0 -19 7 -23 15 -7 20
-33 19 -44 -1 -8 -14 -10 -14 -21 0 -15 18 -21 19 -39 7z m32 -26 c7 -18 -2
-45 -15 -45 -13 0 -22 27 -15 45 3 8 10 15 15 15 5 0 11 -7 15 -15z m64 -17
c-2 -18 -7 -33 -13 -33 -5 0 -11 15 -13 33 -3 24 1 32 13 32 12 0 16 -8 13
-32z"/>
<path d="M2232 2891 c-21 -13 -12 -85 12 -89 10 -2 22 2 27 9 6 11 11 11 21 1
19 -19 38 -14 51 16 6 15 16 31 22 35 6 5 3 7 -7 3 -12 -3 -18 0 -18 10 0 22
-31 30 -45 11 -11 -15 -14 -16 -25 -2 -14 17 -20 18 -38 6z m28 -41 c0 -20 -5
-30 -15 -30 -15 0 -21 40 -8 53 14 15 23 6 23 -23z m70 0 c0 -20 -5 -30 -15
-30 -10 0 -15 10 -15 30 0 20 5 30 15 30 10 0 15 -10 15 -30z"/>
<path d="M2392 2891 c-21 -13 -11 -85 12 -89 10 -2 23 3 28 13 9 15 11 15 23
-2 29 -39 70 21 45 66 -14 27 -40 27 -47 1 l-6 -21 -14 21 c-16 22 -22 24 -41
11z m33 -41 c0 -27 -22 -39 -31 -16 -8 22 3 49 19 43 6 -2 12 -14 12 -27z m63
-2 c-2 -18 -7 -33 -13 -33 -5 0 -11 15 -13 33 -3 24 1 32 13 32 12 0 16 -8 13
-32z"/>
<path d="M512 2853 l-43 -36 -35 34 c-47 45 -44 15 3 -33 l37 -38 -37 0 c-26
0 -37 -4 -37 -15 0 -11 17 -15 77 -17 l76 -3 -77 -29 c-52 -20 -76 -34 -74
-44 2 -8 33 -26 71 -41 l67 -26 0 -52 c0 -50 -2 -53 -25 -53 -23 0 -25 4 -25
45 0 25 -4 45 -10 45 -5 0 -10 -20 -10 -45 0 -41 -2 -45 -25 -45 -23 0 -25 3
-25 50 0 28 -4 50 -10 50 -6 0 -10 -27 -10 -60 l0 -60 80 0 80 0 0 74 c0 70
-1 74 -25 80 -20 5 -25 13 -25 36 0 23 6 33 25 42 18 8 25 19 25 40 0 24 -4
28 -29 28 -17 0 -33 5 -37 12 -7 10 3 20 50 51 10 7 17 20 15 29 -3 14 -12 11
-47 -19z m-16 -183 c0 -23 -5 -24 -43 -9 -26 10 -27 12 -8 19 34 14 51 11 51
-10z"/>
<path d="M745 2880 c-2 -3 -1 -10 3 -15 10 -14 35 -18 27 -5 -3 5 -1 10 4 10
6 0 11 -16 11 -35 0 -32 2 -35 29 -35 37 0 42 8 34 53 l-6 37 -49 -2 c-27 -1
-51 -5 -53 -8z m93 -12 c-7 -19 -38 -22 -38 -4 0 10 9 16 21 16 12 0 19 -5 17
-12z m7 -43 c0 -5 -10 -11 -22 -13 -16 -2 -23 2 -23 13 0 11 7 15 23 13 12 -2
22 -7 22 -13z"/>
<path d="M870 2845 l0 -44 54 0 c36 1 56 6 60 14 6 15 34 14 44 -2 8 -13 78
-21 88 -10 4 4 -3 7 -16 7 l-23 0 23 24 c27 30 21 56 -15 56 -17 0 -25 -5 -25
-17 0 -13 3 -14 12 -5 16 16 28 15 28 -1 0 -13 -40 -57 -52 -57 -2 0 -11 18
-18 40 -7 22 -19 40 -25 40 -6 0 -18 -18 -25 -40 -7 -22 -19 -40 -26 -40 -8 0
-16 17 -20 40 -6 36 -10 40 -35 40 -28 0 -29 -2 -29 -45z m50 -20 c0 -8 -9
-15 -20 -15 -11 0 -20 7 -20 15 0 8 9 15 20 15 11 0 20 -7 20 -15z"/>
<path d="M2900 2789 c0 -24 4 -38 10 -34 6 3 10 22 10 41 0 19 -4 34 -10 34
-5 0 -10 -18 -10 -41z"/>
<path d="M2930 2760 c0 -33 4 -60 9 -60 4 0 8 27 9 60 0 33 -4 60 -9 60 -5 0
-9 -27 -9 -60z"/>
<path d="M760 2735 c0 -6 20 -11 46 -12 31 -1 44 2 41 10 -5 15 -87 17 -87 2z"/>
<path d="M1705 2740 c-8 -14 14 -20 50 -16 17 2 34 4 39 5 5 0 7 4 3 7 -11 11
-86 14 -92 4z"/>
<path d="M611 2718 c-1 -9 -9 -19 -18 -21 -17 -4 -17 -5 0 -6 9 0 17 -6 17
-11 0 -6 6 -5 14 2 8 7 10 15 6 18 -4 3 -10 12 -13 20 -4 12 -6 12 -6 -2z"/>
<path d="M655 2660 c-8 -25 1 -40 25 -40 22 0 34 28 19 46 -16 20 -37 17 -44
-6z"/>
<path d="M2930 2645 c0 -19 5 -35 10 -35 6 0 10 16 10 35 0 19 -4 35 -10 35
-5 0 -10 -16 -10 -35z"/>
<path d="M2900 2640 c0 -16 5 -30 10 -30 6 0 10 14 10 30 0 17 -4 30 -10 30
-5 0 -10 -13 -10 -30z"/>
<path d="M612 2088 c-2 -520 -3 -557 -19 -561 -16 -4 -16 -5 0 -6 18 -1 19
-23 12 -611 -6 -451 -5 -610 4 -610 8 0 11 163 11 610 0 481 3 610 13 610 9 0
9 2 0 8 -10 6 -13 134 -16 563 l-2 554 -3 -557z"/>
<path d="M330 2485 c-3 -71 -3 -191 0 -265 l6 -135 4 130 c3 72 3 191 0 265
l-6 135 -4 -130z"/>
<path d="M2900 2540 c0 -33 4 -60 9 -60 6 0 10 27 10 60 0 33 -5 60 -10 60 -5
0 -9 -27 -9 -60z"/>
<path d="M2931 2540 c-1 -28 3 -50 8 -50 11 0 13 87 2 94 -4 3 -9 -17 -10 -44z"/>
<path d="M662 2555 c2 -14 8 -26 13 -26 6 0 11 12 13 26 2 18 -1 25 -13 25
-12 0 -15 -7 -13 -25z"/>
<path d="M670 2475 c0 -8 -4 -15 -9 -15 -5 0 -4 -11 2 -24 11 -22 13 -23 21
-8 5 9 12 19 16 22 3 3 -2 13 -12 23 -15 14 -18 14 -18 2z"/>
<path d="M521 2443 c-30 -24 -34 -25 -43 -10 -12 22 -64 22 -72 1 -3 -9 -6
-37 -6 -63 l0 -47 80 -2 c64 -1 80 2 80 13 0 10 -11 15 -35 15 -28 0 -35 4
-35 19 0 18 36 55 62 63 5 2 9 11 7 21 -4 14 -9 13 -38 -10z m-53 -56 c3 -34
1 -37 -22 -37 -23 0 -26 4 -26 33 0 38 7 49 30 45 9 -2 16 -16 18 -41z"/>
<path d="M2900 2420 c0 -28 5 -50 10 -50 7 0 10 20 9 50 -2 28 -6 50 -11 50
-4 0 -8 -22 -8 -50z"/>
<path d="M2930 2330 c0 -16 5 -30 10 -30 6 0 10 14 10 30 0 17 -4 30 -10 30
-5 0 -10 -13 -10 -30z"/>
<path d="M654 2319 c-8 -14 -9 -358 0 -366 11 -11 36 -12 36 -2 0 5 -6 9 -12
9 -20 0 -18 163 2 172 13 6 13 7 0 7 -16 1 -16 5 -11 165 1 14 6 17 26 12 14
-4 25 -2 25 4 0 14 -57 13 -66 -1z"/>
<path d="M400 2255 l0 -55 80 0 c59 0 80 3 80 13 0 9 -11 12 -35 9 -35 -4 -35
-4 -35 37 0 23 -4 41 -10 41 -5 0 -10 -18 -10 -40 0 -36 -2 -40 -25 -40 -23 0
-25 4 -25 45 0 25 -4 45 -10 45 -5 0 -10 -25 -10 -55z"/>
<path d="M279 2263 c-7 -67 1 -113 18 -113 11 0 13 3 5 13 -14 17 -14 120 1
129 8 5 7 8 -4 8 -12 0 -18 -11 -20 -37z"/>
<path d="M2900 2230 c0 -16 5 -30 10 -30 6 0 9 14 8 30 -1 17 -6 30 -10 30 -4
0 -8 -13 -8 -30z"/>
<path d="M2900 2130 c0 -33 4 -60 10 -60 6 0 10 27 10 60 0 33 -4 60 -10 60
-6 0 -10 -27 -10 -60z"/>
<path d="M46 2134 c-4 -10 1 -25 10 -35 16 -18 17 -17 34 3 14 18 15 24 4 35
-17 18 -41 16 -48 -3z"/>
<path d="M400 2127 c0 -8 16 -22 35 -33 19 -10 35 -21 35 -24 0 -3 -16 -14
-35 -24 -19 -11 -35 -25 -35 -33 0 -19 6 -17 56 18 35 24 51 29 74 24 23 -5
30 -3 30 9 0 11 -10 16 -33 16 -22 0 -49 11 -75 30 -47 34 -52 35 -52 17z"/>
<path d="M2900 2009 c0 -31 4 -48 10 -44 6 3 10 26 10 51 0 24 -4 44 -10 44
-5 0 -10 -23 -10 -51z"/>
<path d="M2932 1963 c-2 -20 -5 -40 -7 -44 -3 -4 2 -9 10 -13 12 -4 15 4 15
44 0 58 -15 68 -18 13z"/>
<path d="M402 1973 c2 -10 27 -24 68 -38 l65 -22 -65 -20 c-47 -15 -66 -25
-68 -39 -2 -17 5 -19 78 -20 59 0 80 3 80 13 0 9 -17 13 -57 14 l-58 1 58 20
c31 11 57 25 57 32 0 7 -28 22 -62 33 l-63 21 63 1 c34 1 62 5 62 11 0 6 -34
10 -81 10 -70 0 -80 -2 -77 -17z"/>
<path d="M750 1861 c0 -6 23 -10 50 -9 28 0 50 4 50 9 0 5 -22 9 -50 9 -27 0
-50 -4 -50 -9z"/>
<path d="M1700 1860 c0 -5 23 -9 50 -8 28 0 50 4 50 8 0 5 -22 9 -50 8 -27 0
-50 -4 -50 -8z"/>
<path d="M373 1795 c2 -6 47 -10 107 -10 60 0 105 4 107 10 2 6 -38 10 -107
10 -69 0 -109 -4 -107 -10z"/>
<path d="M662 1798 c-16 -16 -15 -33 4 -49 14 -11 18 -10 30 5 9 13 10 24 3
37 -11 22 -20 24 -37 7z"/>
<path d="M664 1696 c-7 -20 2 -46 16 -46 5 0 10 9 10 20 0 11 0 23 1 27 1 15
-21 14 -27 -1z"/>
<path d="M670 1597 c0 -9 -6 -17 -12 -17 -9 0 -10 -3 -2 -8 6 -4 13 -13 15
-20 3 -9 8 -7 20 6 14 16 13 19 -3 37 -16 16 -18 17 -18 2z"/>
<path d="M650 1416 c0 -13 -6 -27 -12 -29 -10 -4 -10 -6 0 -6 6 -1 12 -10 12
-20 0 -11 -6 -22 -12 -24 -10 -4 -10 -6 0 -6 6 -1 12 -7 12 -15 0 -8 -6 -17
-12 -19 -10 -4 -10 -6 0 -6 7 -1 12 -16 12 -40 0 -22 -5 -42 -12 -44 -10 -4
-10 -6 0 -6 6 -1 12 -10 12 -20 0 -11 -6 -22 -12 -24 -10 -4 -10 -6 0 -6 6 -1
12 -10 12 -20 0 -11 -6 -22 -12 -24 -10 -4 -10 -6 0 -6 6 -1 12 -10 12 -21 0
-14 6 -20 23 -19 16 1 18 2 5 6 -15 4 -18 17 -18 89 0 83 0 84 25 84 14 0 25
5 25 10 0 6 -11 8 -25 4 l-25 -6 0 92 0 92 25 -4 c14 -3 28 -1 31 3 3 5 -11 9
-30 9 -31 0 -36 -3 -36 -24z"/>
<path d="M70 1190 c0 -40 25 -40 26 0 1 19 -4 30 -12 30 -9 0 -14 -11 -14 -30z"/>
<path d="M170 1212 c0 -4 33 -6 73 -4 113 5 121 9 20 11 -51 0 -93 -3 -93 -7z"/>
<path d="M430 1214 c58 -8 150 -8 150 -1 0 4 -39 6 -87 6 -49 -1 -77 -3 -63
-5z"/>
<path d="M444 1165 c-4 -8 -4 -24 -1 -35 4 -17 0 -20 -25 -20 -19 0 -28 -4
-25 -12 3 -9 21 -12 60 -10 45 3 57 1 57 -11 0 -8 7 -17 15 -21 21 -8 19 -33
-3 -45 -42 -22 -82 15 -50 47 17 17 2 28 -17 12 -36 -30 -7 -90 44 -90 52 0
78 55 44 92 -15 17 -15 18 0 18 10 0 17 4 17 9 0 6 -21 11 -47 13 -40 3 -48 6
-48 23 0 17 8 20 48 23 66 4 59 22 -8 22 -40 0 -57 -4 -61 -15z"/>
<path d="M206 1118 c-21 -29 -20 -41 4 -63 26 -23 39 -11 16 14 -10 11 -15 25
-11 30 11 18 34 12 47 -11 l12 -23 6 25 c8 34 53 36 58 2 2 -13 -3 -25 -12
-28 -20 -8 -21 -24 -1 -24 24 0 40 45 27 75 -9 18 -19 25 -41 25 -16 0 -33 -5
-36 -10 -4 -7 -12 -7 -25 0 -25 14 -27 13 -44 -12z"/>
<path d="M194 1021 c-12 -13 0 -21 31 -21 34 0 35 -1 35 -40 0 -39 -1 -40 -35
-40 -19 0 -35 -4 -35 -10 0 -6 35 -10 85 -10 50 0 85 4 85 10 0 6 -18 10 -40
10 -40 0 -40 0 -40 40 l0 40 41 0 c25 0 39 4 37 11 -3 10 -154 19 -164 10z"/>
<path d="M541 976 c-16 -19 -77 -22 -84 -3 -4 9 -8 9 -15 -2 -6 -8 -17 -11
-26 -8 -9 4 -16 2 -16 -4 0 -27 146 -31 157 -3 9 24 -2 38 -16 20z"/>
<path d="M495 921 c-49 -6 -50 -6 -53 -44 -2 -27 1 -39 13 -43 9 -4 19 -3 23
1 4 4 1 10 -5 12 -19 7 -16 53 2 53 10 0 15 -10 15 -29 0 -36 25 -59 48 -44
12 7 17 25 18 57 0 25 -2 45 -5 44 -3 0 -28 -4 -56 -7z m41 -36 c8 -20 -4 -51
-15 -39 -5 5 -12 19 -16 32 -5 16 -2 22 10 22 8 0 18 -7 21 -15z"/>
<path d="M656 881 c-15 -16 -15 -19 3 -35 17 -15 20 -16 34 -1 17 17 13 40 -8
49 -7 2 -20 -3 -29 -13z"/>
<path d="M207 862 c-35 -38 -12 -107 33 -100 19 2 29 14 41 48 20 53 45 64 55
24 5 -21 2 -31 -14 -45 -23 -18 -29 -39 -12 -39 6 0 19 9 30 20 36 36 20 110
-25 110 -25 0 -55 -33 -55 -61 0 -27 -25 -42 -39 -25 -13 16 -6 56 10 56 5 0
9 7 9 15 0 20 -13 19 -33 -3z"/>
<path d="M390 796 c0 -9 26 -23 66 -36 36 -12 64 -23 62 -25 -2 -2 -30 -12
-63 -23 -37 -12 -61 -25 -63 -35 -3 -15 8 -17 82 -17 51 0 86 4 86 10 0 6 -28
10 -62 11 l-63 1 63 21 c34 11 62 26 62 32 0 6 -28 21 -62 32 l-63 21 63 1
c34 1 62 5 62 11 0 6 -35 10 -85 10 -67 0 -85 -3 -85 -14z"/>
<path d="M265 681 c-38 -16 -70 -35 -70 -42 0 -14 115 -67 148 -68 26 -1 20
18 -8 25 -21 5 -25 12 -25 40 0 28 5 36 25 44 26 10 35 30 13 29 -7 0 -44 -13
-83 -28z m25 -45 c0 -23 -2 -24 -36 -13 -35 11 -35 11 -12 23 34 20 48 17 48
-10z"/>
<path d="M370 628 c0 -7 118 -14 173 -10 76 6 34 17 -68 17 -58 0 -105 -3
-105 -7z"/>
<path d="M190 544 c0 -14 9 -16 60 -12 33 2 60 3 60 2 0 -2 -27 -22 -60 -44
-33 -22 -60 -45 -60 -50 0 -6 37 -10 85 -10 97 0 116 18 24 22 l-61 3 58 40
c32 22 59 45 59 50 0 6 -36 11 -82 13 -72 2 -83 1 -83 -14z"/>
<path d="M70 525 c0 -8 5 -15 11 -15 8 0 8 -5 -1 -15 -10 -12 -10 -15 3 -15
11 0 15 9 15 30 -1 30 -28 45 -28 15z"/>
<path d="M194 411 c-15 -15 7 -21 82 -21 57 0 84 4 82 11 -3 10 -154 19 -164
10z"/>
<path d="M190 314 c0 -48 3 -65 13 -61 6 2 12 15 12 28 0 23 3 24 69 24 46 0
71 4 73 13 4 9 -15 12 -71 12 -74 0 -76 1 -76 25 0 14 -4 25 -10 25 -6 0 -10
-29 -10 -66z"/>
<path d="M594 257 c-17 -19 11 -43 29 -25 11 10 12 15 1 25 -15 16 -16 16 -30
0z"/>
<path d="M171 228 c-1 -16 10 -18 104 -18 94 0 105 2 104 18 0 10 -3 12 -6 5
-7 -18 -189 -18 -196 0 -3 7 -6 5 -6 -5z"/>
<path d="M41 87 c-8 -11 -6 -18 9 -32 19 -17 21 -17 40 0 15 14 17 21 9 32 -6
7 -19 13 -29 13 -10 0 -23 -6 -29 -13z"/>
</g>
</svg>
